ffmpeg started on 2025-06-06 at 19:32:44
Report written to "D:\Convert\FFMetrics\reports\psnr_report-6.txt"
Log level: 32
Command line:
ffmpeg -hide_banner -nostdin -i "G:\\\xc0\xed\xe8\xec\xe5\\\xce\xed\xe3\xee\xe8\xed\xe3\xe8\\!_36_\xce\xf1\xe5\xed\xfc_2024\\DreamCast\\\xd0\xee\xed \xca\xe0\xec\xee\xed\xee\xf5\xe0\xf1\xe8 - \xcd\xe5\xe2\xec\xe5\xed\xff\xe5\xec\xfb\xe9 \xe4\xe5\xf2\xe5\xea\xf2\xe8\xe2\\\xd2\xc2-1\\[DC] Kamonohashi Ron no Kindan Suiri - 12_Telegram_HEVC.mkv" -i "G:\\\xc0\xed\xe8\xec\xe5\\\xce\xed\xe3\xee\xe8\xed\xe3\xe8\\!_36_\xce\xf1\xe5\xed\xfc_2024\\DreamCast\\\xd0\xee\xed \xca\xe0\xec\xee\xed\xee\xf5\xe0\xf1\xe8 - \xcd\xe5\xe2\xec\xe5\xed\xff\xe5\xec\xfb\xe9 \xe4\xe5\xf2\xe5\xea\xf2\xe8\xe2\\\xd2\xc2-1\\[DC] Kamonohashi Ron no Kindan Suiri - 12_Telegram.mp4" -lavfi "[0:v]settb=AVTB,setpts=PTS-STARTPTS,format=pix_fmts=yuv420p10,fps=24000/1001,scale=1920:1080:flags=bicubic[main];[1:v]settb=AVTB,setpts=PTS-STARTPTS,format=pix_fmts=yuv420p,fps=24000/1001,scale=1920:1080:flags=bicubic[ref];[main][ref]psnr=eof_action=endall:stats_file='D\\:/Convert/FFMetrics/logs/psnr_logfile-6.txt'" -f null -
Input #0, matroska,webm, from 'G:\Аниме\Онгоинги\!_36_Осень_2024\DreamCast\Рон Камонохаси - Невменяемый детектив\ТВ-1\[DC] Kamonohashi Ron no Kindan Suiri - 12_Telegram_HEVC.mkv':
  Metadata:
    COMPATIBLE_BRANDS: isomiso2avc1mp41
    MAJOR_BRAND     : isom
    MINOR_VERSION   : 512
    ENCODER         : Lavf61.7.100
  Duration: 00:23:46.73, start: -0.021000, bitrate: 940 kb/s
  Stream #0:0: Video: hevc (Main 10), yuv420p10le(tv, bt709, progressive), 1920x1080 [SAR 1:1 DAR 16:9], 23.98 fps, 23.98 tbr, 1k tbn (default)
      Metadata:
        HANDLER_NAME    : VideoHandler
        VENDOR_ID       : [0][0][0][0]
        ENCODER         : Lavc61.19.100 libx265
        BPS             : 743297
        DURATION        : 00:23:46.508708333
        NUMBER_OF_FRAMES: 34202
        NUMBER_OF_BYTES : 132539976
        _STATISTICS_WRITING_APP: mkvpropedit v66.0.0 ('Josie') 64-bit
        _STATISTICS_WRITING_DATE_UTC: 2025-06-03 16:03:19
        _STATISTICS_TAGS: BPS DURATION NUMBER_OF_FRAMES NUMBER_OF_BYTES
  Stream #0:1: Audio: aac (LC), 48000 Hz, stereo, fltp (default)
      Metadata:
        HANDLER_NAME    : SoundHandler
        VENDOR_ID       : [0][0][0][0]
        ENCODER         : Lavc61.19.100 aac
        BPS             : 193586
        DURATION        : 00:23:46.730000000
        NUMBER_OF_FRAMES: 66879
        NUMBER_OF_BYTES : 34524408
        _STATISTICS_WRITING_APP: mkvpropedit v66.0.0 ('Josie') 64-bit
        _STATISTICS_WRITING_DATE_UTC: 2025-06-03 16:03:19
        _STATISTICS_TAGS: BPS DURATION NUMBER_OF_FRAMES NUMBER_OF_BYTES
Input #1, mov,mp4,m4a,3gp,3g2,mj2, from 'G:\Аниме\Онгоинги\!_36_Осень_2024\DreamCast\Рон Камонохаси - Невменяемый детектив\ТВ-1\[DC] Kamonohashi Ron no Kindan Suiri - 12_Telegram.mp4':
  Metadata:
    major_brand     : isom
    minor_version   : 512
    compatible_brands: isomiso2avc1mp41
    encoder         : Lavf60.18.100
  Duration: 00:23:46.68, start: 0.000000, bitrate: 3446 kb/s
  Stream #1:0[0x1](und): Video: h264 (High) (avc1 / 0x31637661), yuv420p(tv, bt709, progressive), 1920x1080 [SAR 1:1 DAR 16:9], 3298 kb/s, 23.98 fps, 23.98 tbr, 24k tbn (default)
      Metadata:
        handler_name    : VideoHandler
        vendor_id       : [0][0][0][0]
        encoder         : Lavc60.35.100 h264_qsv
  Stream #1:1[0x2](und): Audio: aac (HE-AACv2) (mp4a / 0x6134706D), 48000 Hz, stereo, fltp, 144 kb/s (default)
      Metadata:
        handler_name    : SoundHandler
        vendor_id       : [0][0][0][0]
Stream mapping:
  Stream #0:0 (hevc) -> settb:default
  Stream #1:0 (h264) -> settb:default
  psnr:default -> Stream #0:0 (wrapped_avframe)
  Stream #0:1 -> #0:1 (aac (native) -> pcm_s16le (native))
Output #0, null, to 'pipe:':
  Metadata:
    COMPATIBLE_BRANDS: isomiso2avc1mp41
    MAJOR_BRAND     : isom
    MINOR_VERSION   : 512
    encoder         : Lavf61.7.100
  Stream #0:0: Video: wrapped_avframe, yuv420p10le(tv, bt709, progressive), 1920x1080 [SAR 1:1 DAR 16:9], q=2-31, 200 kb/s, 23.98 fps, 23.98 tbn
      Metadata:
        encoder         : Lavc61.19.100 wrapped_avframe
  Stream #0:1: Audio: pcm_s16le, 48000 Hz, stereo, s16, 1536 kb/s (default)
      Metadata:
        HANDLER_NAME    : SoundHandler
        VENDOR_ID       : [0][0][0][0]
        _STATISTICS_TAGS: BPS DURATION NUMBER_OF_FRAMES NUMBER_OF_BYTES
        BPS             : 193586
        DURATION        : 00:23:46.730000000
        NUMBER_OF_FRAMES: 66879
        NUMBER_OF_BYTES : 34524408
        _STATISTICS_WRITING_APP: mkvpropedit v66.0.0 ('Josie') 64-bit
        _STATISTICS_WRITING_DATE_UTC: 2025-06-03 16:03:19
        encoder         : Lavc61.19.100 pcm_s16le
frame=  162 fps=0.0 q=-0.0 size=N/A time=00:00:06.75 bitrate=N/A speed=12.8x    frame=  346 fps=333 q=-0.0 size=N/A time=00:00:14.43 bitrate=N/A speed=13.9x    frame=  602 fps=389 q=-0.0 size=N/A time=00:00:25.10 bitrate=N/A speed=16.2x    frame=  876 fps=423 q=-0.0 size=N/A time=00:00:36.53 bitrate=N/A speed=17.6x    frame= 1166 fps=450 q=-0.0 size=N/A time=00:00:48.63 bitrate=N/A speed=18.8x    frame= 1415 fps=457 q=-0.0 size=N/A time=00:00:59.01 bitrate=N/A speed=  19x    frame= 1667 fps=462 q=-0.0 size=N/A time=00:01:09.52 bitrate=N/A speed=19.3x    frame= 1908 fps=461 q=-0.0 size=N/A time=00:01:19.57 bitrate=N/A speed=19.2x    frame= 2150 fps=463 q=-0.0 size=N/A time=00:01:29.67 bitrate=N/A speed=19.3x    frame= 2390 fps=463 q=-0.0 size=N/A time=00:01:39.68 bitrate=N/A speed=19.3x    frame= 2616 fps=460 q=-0.0 size=N/A time=00:01:49.10 bitrate=N/A speed=19.2x    frame= 2825 fps=456 q=-0.0 size=N/A time=00:01:57.82 bitrate=N/A speed=  19x    frame= 3048 fps=454 q=-0.0 size=N/A time=00:02:07.12 bitrate=N/A speed=18.9x    frame= 3255 fps=451 q=-0.0 size=N/A time=00:02:15.76 bitrate=N/A speed=18.8x    frame= 3512 fps=453 q=-0.0 size=N/A time=00:02:26.47 bitrate=N/A speed=18.9x    frame= 3754 fps=455 q=-0.0 size=N/A time=00:02:36.57 bitrate=N/A speed=  19x    frame= 3983 fps=454 q=-0.0 size=N/A time=00:02:46.12 bitrate=N/A speed=18.9x    frame= 4240 fps=456 q=-0.0 size=N/A time=00:02:56.84 bitrate=N/A speed=  19x    frame= 4497 fps=459 q=-0.0 size=N/A time=00:03:07.56 bitrate=N/A speed=19.1x    frame= 4762 fps=461 q=-0.0 size=N/A time=00:03:18.61 bitrate=N/A speed=19.2x    frame= 5046 fps=466 q=-0.0 size=N/A time=00:03:30.46 bitrate=N/A speed=19.4x    frame= 5305 fps=468 q=-0.0 size=N/A time=00:03:41.26 bitrate=N/A speed=19.5x    frame= 5570 fps=469 q=-0.0 size=N/A time=00:03:52.31 bitrate=N/A speed=19.6x    frame= 5831 fps=471 q=-0.0 size=N/A time=00:04:03.20 bitrate=N/A speed=19.6x    frame= 6073 fps=471 q=-0.0 size=N/A time=00:04:13.29 bitrate=N/A speed=19.6x    frame= 6320 fps=471 q=-0.0 size=N/A time=00:04:23.59 bitrate=N/A speed=19.7x    frame= 6570 fps=472 q=-0.0 size=N/A time=00:04:34.02 bitrate=N/A speed=19.7x    frame= 6797 fps=471 q=-0.0 size=N/A time=00:04:43.49 bitrate=N/A speed=19.6x    frame= 7071 fps=473 q=-0.0 size=N/A time=00:04:54.96 bitrate=N/A speed=19.7x    frame= 7311 fps=473 q=-0.0 size=N/A time=00:05:04.92 bitrate=N/A speed=19.7x    frame= 7575 fps=474 q=-0.0 size=N/A time=00:05:15.94 bitrate=N/A speed=19.8x    frame= 7845 fps=475 q=-0.0 size=N/A time=00:05:27.20 bitrate=N/A speed=19.8x    frame= 8119 fps=477 q=-0.0 size=N/A time=00:05:38.62 bitrate=N/A speed=19.9x    frame= 8394 fps=479 q=-0.0 size=N/A time=00:05:50.09 bitrate=N/A speed=  20x    frame= 8647 fps=479 q=-0.0 size=N/A time=00:06:00.65 bitrate=N/A speed=  20x    frame= 8812 fps=474 q=-0.0 size=N/A time=00:06:07.53 bitrate=N/A speed=19.8x    frame= 9016 fps=473 q=-0.0 size=N/A time=00:06:16.04 bitrate=N/A speed=19.7x    frame= 9243 fps=472 q=-0.0 size=N/A time=00:06:25.51 bitrate=N/A speed=19.7x    frame= 9447 fps=470 q=-0.0 size=N/A time=00:06:34.01 bitrate=N/A speed=19.6x    frame= 9670 fps=469 q=-0.0 size=N/A time=00:06:43.31 bitrate=N/A speed=19.5x    frame= 9874 fps=467 q=-0.0 size=N/A time=00:06:51.82 bitrate=N/A speed=19.5x    frame=10097 fps=466 q=-0.0 size=N/A time=00:07:01.12 bitrate=N/A speed=19.4x    frame=10304 fps=465 q=-0.0 size=N/A time=00:07:09.76 bitrate=N/A speed=19.4x    frame=10534 fps=464 q=-0.0 size=N/A time=00:07:19.35 bitrate=N/A speed=19.4x    frame=10773 fps=464 q=-0.0 size=N/A time=00:07:29.32 bitrate=N/A speed=19.4x    frame=10956 fps=462 q=-0.0 size=N/A time=00:07:36.95 bitrate=N/A speed=19.3x    frame=11172 fps=461 q=-0.0 size=N/A time=00:07:45.96 bitrate=N/A speed=19.2x    frame=11380 fps=460 q=-0.0 size=N/A time=00:07:54.64 bitrate=N/A speed=19.2x    frame=11648 fps=461 q=-0.0 size=N/A time=00:08:05.81 bitrate=N/A speed=19.2x    frame=11878 fps=461 q=-0.0 size=N/A time=00:08:15.41 bitrate=N/A speed=19.2x    frame=12152 fps=462 q=-0.0 size=N/A time=00:08:26.83 bitrate=N/A speed=19.3x    frame=12422 fps=463 q=-0.0 size=N/A time=00:08:38.10 bitrate=N/A speed=19.3x    frame=12663 fps=463 q=-0.0 size=N/A time=00:08:48.15 bitrate=N/A speed=19.3x    frame=12928 fps=464 q=-0.0 size=N/A time=00:08:59.20 bitrate=N/A speed=19.4x    frame=13186 fps=465 q=-0.0 size=N/A time=00:09:09.96 bitrate=N/A speed=19.4x    frame=13436 fps=465 q=-0.0 size=N/A time=00:09:20.39 bitrate=N/A speed=19.4x    frame=13698 fps=466 q=-0.0 size=N/A time=00:09:31.32 bitrate=N/A speed=19.4x    frame=13949 fps=466 q=-0.0 size=N/A time=00:09:41.78 bitrate=N/A speed=19.4x    frame=14215 fps=467 q=-0.0 size=N/A time=00:09:52.88 bitrate=N/A speed=19.5x    frame=14488 fps=468 q=-0.0 size=N/A time=00:10:04.27 bitrate=N/A speed=19.5x    frame=14695 fps=467 q=-0.0 size=N/A time=00:10:12.90 bitrate=N/A speed=19.5x    frame=14946 fps=467 q=-0.0 size=N/A time=00:10:23.37 bitrate=N/A speed=19.5x    frame=15187 fps=468 q=-0.0 size=N/A time=00:10:33.42 bitrate=N/A speed=19.5x    frame=15426 fps=467 q=-0.0 size=N/A time=00:10:43.39 bitrate=N/A speed=19.5x    frame=15684 fps=468 q=-0.0 size=N/A time=00:10:54.15 bitrate=N/A speed=19.5x    frame=15959 fps=469 q=-0.0 size=N/A time=00:11:05.62 bitrate=N/A speed=19.6x    frame=16216 fps=469 q=-0.0 size=N/A time=00:11:16.34 bitrate=N/A speed=19.6x    frame=16470 fps=470 q=-0.0 size=N/A time=00:11:26.93 bitrate=N/A speed=19.6x    frame=16715 fps=470 q=-0.0 size=N/A time=00:11:37.15 bitrate=N/A speed=19.6x    frame=16970 fps=470 q=-0.0 size=N/A time=00:11:47.79 bitrate=N/A speed=19.6x    frame=17215 fps=470 q=-0.0 size=N/A time=00:11:58.00 bitrate=N/A speed=19.6x    frame=17463 fps=470 q=-0.0 size=N/A time=00:12:08.39 bitrate=N/A speed=19.6x    frame=17727 fps=471 q=-0.0 size=N/A time=00:12:19.36 bitrate=N/A speed=19.6x    frame=17983 fps=471 q=-0.0 size=N/A time=00:12:30.04 bitrate=N/A speed=19.7x    frame=18249 fps=472 q=-0.0 size=N/A time=00:12:41.17 bitrate=N/A speed=19.7x    frame=18494 fps=472 q=-0.0 size=N/A time=00:12:51.35 bitrate=N/A speed=19.7x    frame=18760 fps=473 q=-0.0 size=N/A time=00:13:02.44 bitrate=N/A speed=19.7x    frame=19041 fps=473 q=-0.0 size=N/A time=00:13:14.16 bitrate=N/A speed=19.7x    frame=19280 fps=473 q=-0.0 size=N/A time=00:13:24.13 bitrate=N/A speed=19.7x    frame=19518 fps=473 q=-0.0 size=N/A time=00:13:34.06 bitrate=N/A speed=19.7x    frame=19721 fps=472 q=-0.0 size=N/A time=00:13:42.53 bitrate=N/A speed=19.7x    frame=19938 fps=471 q=-0.0 size=N/A time=00:13:51.58 bitrate=N/A speed=19.7x    frame=20142 fps=471 q=-0.0 size=N/A time=00:14:00.08 bitrate=N/A speed=19.6x    frame=20367 fps=470 q=-0.0 size=N/A time=00:14:09.47 bitrate=N/A speed=19.6x    frame=20614 fps=470 q=-0.0 size=N/A time=00:14:19.77 bitrate=N/A speed=19.6x    frame=20854 fps=470 q=-0.0 size=N/A time=00:14:29.78 bitrate=N/A speed=19.6x    frame=21131 fps=471 q=-0.0 size=N/A time=00:14:41.33 bitrate=N/A speed=19.6x    frame=21380 fps=471 q=-0.0 size=N/A time=00:14:51.72 bitrate=N/A speed=19.6x    frame=21634 fps=471 q=-0.0 size=N/A time=00:15:02.31 bitrate=N/A speed=19.7x    frame=21896 fps=472 q=-0.0 size=N/A time=00:15:13.24 bitrate=N/A speed=19.7x    frame=22134 fps=472 q=-0.0 size=N/A time=00:15:23.17 bitrate=N/A speed=19.7x    frame=22379 fps=472 q=-0.0 size=N/A time=00:15:33.39 bitrate=N/A speed=19.7x    frame=22607 fps=471 q=-0.0 size=N/A time=00:15:42.90 bitrate=N/A speed=19.7x    frame=22878 fps=472 q=-0.0 size=N/A time=00:15:54.20 bitrate=N/A speed=19.7x    frame=23140 fps=472 q=-0.0 size=N/A time=00:16:05.13 bitrate=N/A speed=19.7x    frame=23410 fps=473 q=-0.0 size=N/A time=00:16:16.39 bitrate=N/A speed=19.7x    frame=23662 fps=473 q=-0.0 size=N/A time=00:16:26.90 bitrate=N/A speed=19.7x    frame=23876 fps=472 q=-0.0 size=N/A time=00:16:35.82 bitrate=N/A speed=19.7x    frame=24090 fps=472 q=-0.0 size=N/A time=00:16:44.75 bitrate=N/A speed=19.7x    frame=24317 fps=472 q=-0.0 size=N/A time=00:16:54.22 bitrate=N/A speed=19.7x    frame=24562 fps=472 q=-0.0 size=N/A time=00:17:04.44 bitrate=N/A speed=19.7x    frame=24725 fps=470 q=-0.0 size=N/A time=00:17:11.23 bitrate=N/A speed=19.6x    frame=24974 fps=470 q=-0.0 size=N/A time=00:17:21.62 bitrate=N/A speed=19.6x    frame=25210 fps=470 q=-0.0 size=N/A time=00:17:31.46 bitrate=N/A speed=19.6x    frame=25495 fps=471 q=-0.0 size=N/A time=00:17:43.35 bitrate=N/A speed=19.6x    frame=25738 fps=471 q=-0.0 size=N/A time=00:17:53.48 bitrate=N/A speed=19.6x    frame=25998 fps=471 q=-0.0 size=N/A time=00:18:04.33 bitrate=N/A speed=19.7x    frame=26278 fps=472 q=-0.0 size=N/A time=00:18:16.01 bitrate=N/A speed=19.7x    frame=26542 fps=472 q=-0.0 size=N/A time=00:18:27.02 bitrate=N/A speed=19.7x    frame=26806 fps=473 q=-0.0 size=N/A time=00:18:38.03 bitrate=N/A speed=19.7x    frame=27026 fps=472 q=-0.0 size=N/A time=00:18:47.20 bitrate=N/A speed=19.7x    frame=27227 fps=471 q=-0.0 size=N/A time=00:18:55.59 bitrate=N/A speed=19.7x    frame=27517 fps=472 q=-0.0 size=N/A time=00:19:07.68 bitrate=N/A speed=19.7x    frame=27792 fps=473 q=-0.0 size=N/A time=00:19:19.15 bitrate=N/A speed=19.7x    frame=28045 fps=473 q=-0.0 size=N/A time=00:19:29.71 bitrate=N/A speed=19.7x    frame=28307 fps=473 q=-0.0 size=N/A time=00:19:40.63 bitrate=N/A speed=19.7x    frame=28525 fps=473 q=-0.0 size=N/A time=00:19:49.73 bitrate=N/A speed=19.7x    frame=28763 fps=473 q=-0.0 size=N/A time=00:19:59.65 bitrate=N/A speed=19.7x    frame=29028 fps=473 q=-0.0 size=N/A time=00:20:10.70 bitrate=N/A speed=19.7x    frame=29260 fps=473 q=-0.0 size=N/A time=00:20:20.38 bitrate=N/A speed=19.7x    frame=29523 fps=473 q=-0.0 size=N/A time=00:20:31.35 bitrate=N/A speed=19.7x    frame=29793 fps=474 q=-0.0 size=N/A time=00:20:42.61 bitrate=N/A speed=19.8x    frame=30074 fps=474 q=-0.0 size=N/A time=00:20:54.33 bitrate=N/A speed=19.8x    frame=30357 fps=475 q=-0.0 size=N/A time=00:21:06.13 bitrate=N/A speed=19.8x    frame=30594 fps=474 q=-0.0 size=N/A time=00:21:16.02 bitrate=N/A speed=19.8x    frame=30850 fps=475 q=-0.0 size=N/A time=00:21:26.70 bitrate=N/A speed=19.8x    frame=31111 fps=475 q=-0.0 size=N/A time=00:21:37.58 bitrate=N/A speed=19.8x    frame=31366 fps=475 q=-0.0 size=N/A time=00:21:48.22 bitrate=N/A speed=19.8x    frame=31638 fps=475 q=-0.0 size=N/A time=00:21:59.56 bitrate=N/A speed=19.8x    frame=31881 fps=475 q=-0.0 size=N/A time=00:22:09.70 bitrate=N/A speed=19.8x    frame=32089 fps=475 q=-0.0 size=N/A time=00:22:18.37 bitrate=N/A speed=19.8x    frame=32361 fps=475 q=-0.0 size=N/A time=00:22:29.72 bitrate=N/A speed=19.8x    frame=32623 fps=476 q=-0.0 size=N/A time=00:22:40.65 bitrate=N/A speed=19.8x    frame=32883 fps=476 q=-0.0 size=N/A time=00:22:51.49 bitrate=N/A speed=19.8x    frame=33161 fps=476 q=-0.0 size=N/A time=00:23:03.09 bitrate=N/A speed=19.9x    frame=33437 fps=477 q=-0.0 size=N/A time=00:23:14.60 bitrate=N/A speed=19.9x    frame=33701 fps=477 q=-0.0 size=N/A time=00:23:25.61 bitrate=N/A speed=19.9x    frame=33936 fps=477 q=-0.0 size=N/A time=00:23:35.41 bitrate=N/A speed=19.9x    [Parsed_psnr_10 @ 000001f0f6e6e140] PSNR y:48.490633 u:50.064150 v:50.648143 average:49.025663 min:41.707700 max:inf
[out#0/null @ 000001f0f65f5580] video:14696KiB audio:267516KiB subtitle:0KiB other streams:0KiB global headers:0KiB muxing overhead: unknown
frame=34202 fps=477 q=-0.0 Lsize=N/A time=00:23:46.50 bitrate=N/A speed=19.9x    
